<svg width="101.000000" height="24.000000" viewBox="0 0 101 24" fill="none" xmlns="http://www.w3.org/2000/svg" xmlns:xlink="http://www.w3.org/1999/xlink">
	<desc>
			Created with Pixso.
	</desc>
	<defs/>
	<path d="M88.22 23.05Q89.53 23.62 91.24 23.62Q93.15 23.62 94.43 22.96Q95.7 22.3 96.52 21.27L96.52 21.27L96.52 22.5Q96.52 22.7 96.6 22.86Q96.65 22.97 96.73 23.06Q96.78 23.11 96.84 23.16Q97.04 23.29 97.32 23.29L99.92 23.29Q100.11 23.29 100.26 23.22Q100.38 23.16 100.48 23.06Q100.59 22.94 100.65 22.8Q100.71 22.66 100.71 22.5L100.71 0.65Q100.71 0.47 100.65 0.33Q100.59 0.2 100.48 0.09Q100.37 -0.02 100.24 -0.08Q100.1 -0.14 99.92 -0.14L97.12 -0.14Q96.87 -0.14 96.68 -0.03Q96.6 0.02 96.54 0.09Q96.46 0.18 96.41 0.27Q96.33 0.44 96.33 0.65L96.33 7.97Q95.5 7.02 94.26 6.41Q93.02 5.8 91.24 5.8Q89.53 5.8 88.22 6.39Q87.35 6.79 86.66 7.41Q86.33 7.71 86.04 8.06L86.04 8.06Q85.17 9.13 84.73 10.55Q84.28 11.97 84.21 13.62Q84.18 14.22 84.18 14.69Q84.18 15.17 84.21 15.76Q84.28 17.48 84.74 18.91Q85.2 20.35 86.06 21.41Q86.3 21.71 86.58 21.97Q87.29 22.63 88.22 23.05ZM22.22 23.22Q22.36 23.29 22.54 23.29L25.44 23.29Q25.69 23.29 25.88 23.18Q25.96 23.13 26.04 23.06Q26.15 22.94 26.21 22.8Q26.27 22.66 26.27 22.5L26.27 14.31L36.2 14.31Q36.46 14.31 36.65 14.2Q36.73 14.15 36.79 14.09Q36.91 13.97 36.97 13.83Q37.02 13.69 37.02 13.52L37.02 11.21Q37.02 10.97 36.92 10.79Q36.87 10.69 36.79 10.61Q36.72 10.54 36.63 10.49Q36.45 10.38 36.2 10.38L26.27 10.38L26.27 4.11L36.86 4.11Q37.16 4.11 37.37 3.97Q37.41 3.94 37.45 3.9Q37.52 3.84 37.57 3.76Q37.69 3.57 37.69 3.32L37.69 1.01Q37.69 0.76 37.58 0.58Q37.53 0.5 37.45 0.42Q37.39 0.35 37.31 0.31Q37.12 0.19 36.86 0.19L22.54 0.19Q22.37 0.19 22.23 0.25Q22.09 0.31 21.97 0.42Q21.9 0.5 21.85 0.58Q21.74 0.76 21.74 1.01L21.74 22.5Q21.74 22.66 21.8 22.8Q21.86 22.94 21.97 23.06Q22.08 23.17 22.22 23.22ZM45.65 22.7Q47.45 23.62 50.09 23.62Q52.73 23.62 54.53 22.7Q55.71 22.09 56.51 21.17Q56.94 20.67 57.27 20.09Q58.21 18.4 58.34 16.16Q58.38 15.57 58.38 14.71Q58.38 13.85 58.34 13.26Q58.21 10.98 57.23 9.31Q56.88 8.7 56.42 8.2Q55.61 7.31 54.46 6.72Q52.67 5.8 50.09 5.8Q47.52 5.8 45.71 6.72Q44.57 7.31 43.76 8.2Q43.3 8.7 42.94 9.31Q41.98 10.98 41.84 13.26Q41.81 13.85 41.81 14.71Q41.81 15.57 41.84 16.16Q41.98 18.4 42.91 20.09Q43.25 20.7 43.7 21.21Q44.5 22.11 45.65 22.7ZM66.84 22.7Q68.64 23.62 71.27 23.62Q73.92 23.62 75.71 22.7Q76.89 22.09 77.7 21.17Q78.13 20.67 78.45 20.09Q79.4 18.4 79.52 16.16Q79.56 15.57 79.56 14.71Q79.56 13.85 79.52 13.26Q79.4 10.98 78.42 9.31Q78.07 8.7 77.61 8.2Q76.79 7.31 75.65 6.72Q73.85 5.8 71.27 5.8Q68.7 5.8 66.9 6.72Q65.75 7.31 64.94 8.2Q64.48 8.7 64.13 9.31Q63.16 10.98 63.02 13.26Q62.99 13.85 62.99 14.71Q62.99 15.57 63.02 16.16Q63.16 18.4 64.1 20.09Q64.44 20.7 64.89 21.21Q65.69 22.11 66.84 22.7ZM52.29 19.71Q51.42 20.35 50.09 20.35Q48.78 20.35 47.91 19.73Q47.62 19.52 47.38 19.24Q46.43 18.14 46.33 16Q46.29 15.5 46.29 14.71Q46.29 13.92 46.33 13.42Q46.43 11.27 47.38 10.17Q47.62 9.89 47.91 9.69Q48.78 9.07 50.09 9.07Q51.42 9.07 52.29 9.7Q52.57 9.9 52.8 10.17Q53.75 11.27 53.85 13.42Q53.88 13.92 53.88 14.71Q53.88 15.5 53.85 16Q53.75 18.14 52.8 19.24Q52.57 19.51 52.29 19.71ZM73.47 19.71Q72.61 20.35 71.27 20.35Q69.96 20.35 69.1 19.73Q68.81 19.52 68.57 19.24Q67.62 18.14 67.51 16Q67.48 15.5 67.48 14.71Q67.48 13.92 67.51 13.42Q67.62 11.27 68.57 10.17Q68.81 9.89 69.1 9.69Q69.96 9.07 71.27 9.07Q72.61 9.07 73.47 9.7Q73.75 9.9 73.98 10.17Q74.94 11.27 75.04 13.42Q75.07 13.92 75.07 14.71Q75.07 15.5 75.04 16Q74.94 18.14 73.98 19.24Q73.75 19.51 73.47 19.71ZM94.67 19.46Q93.85 20.09 92.46 20.09Q91.07 20.09 90.27 19.48Q89.97 19.25 89.74 18.97Q89.33 18.5 89.1 17.87Q88.74 16.88 88.67 15.7Q88.65 15.2 88.65 14.71Q88.65 14.21 88.67 13.72Q88.74 12.53 89.1 11.54Q89.33 10.91 89.74 10.44Q89.97 10.16 90.27 9.94Q91.07 9.32 92.46 9.32Q93.78 9.32 94.6 9.92Q95.07 10.26 95.41 10.69Q95.67 11.03 95.86 11.43Q96.1 11.93 96.22 12.47Q96.31 12.89 96.33 13.32Q96.36 13.92 96.36 14.59Q96.36 15.27 96.33 15.86Q96.32 16.13 96.28 16.4Q96.19 17.14 95.89 17.86Q95.68 18.38 95.34 18.8Q95.05 19.17 94.67 19.46Z" fill="#363853" fill-opacity="1.000000" fill-rule="evenodd"/>
	<path d="M0.04 23.22Q0.19 23.29 0.36 23.29L15.15 23.29Q15.41 23.29 15.59 23.17Q15.67 23.13 15.73 23.06Q15.85 22.94 15.91 22.8Q15.97 22.66 15.97 22.5L15.97 20.31Q15.97 20.07 15.86 19.89Q15.81 19.8 15.73 19.73Q15.66 19.65 15.57 19.6Q15.39 19.49 15.15 19.49L4.02 19.49L4.02 13.45L14.16 13.45Q14.44 13.45 14.64 13.32Q14.7 13.28 14.74 13.24Q14.82 13.17 14.86 13.09Q14.98 12.91 14.98 12.66L14.98 10.61Q14.98 10.36 14.86 10.18Q14.81 10.1 14.74 10.04Q14.69 9.99 14.62 9.95Q14.43 9.82 14.16 9.82L4.02 9.82L4.02 3.98L14.88 3.98Q15.14 3.98 15.33 3.87Q15.4 3.82 15.47 3.76Q15.59 3.64 15.64 3.5Q15.7 3.36 15.7 3.19L15.7 1.01Q15.7 0.76 15.6 0.58Q15.54 0.5 15.47 0.42Q15.4 0.35 15.31 0.3Q15.13 0.19 14.88 0.19L0.36 0.19Q0.2 0.19 0.06 0.25Q-0.08 0.31 -0.2 0.42Q-0.28 0.5 -0.33 0.58Q-0.43 0.76 -0.43 1.01L-0.43 22.5Q-0.43 22.66 -0.38 22.8Q-0.32 22.94 -0.2 23.06Q-0.09 23.17 0.04 23.22Z" fill="#FF6838" fill-opacity="1.000000" fill-rule="evenodd"/>
</svg>
